<!-- icon666.com - MILLIONS vector ICONS FREE --><svg viewBox="0 0 128 128" xmlns="http://www.w3.org/2000/svg"><g><g><path d="m92.091 33.612h-27.116a3.583 3.583 0 0 0 0 7.165h27.116a3.583 3.583 0 1 0 0-7.165z" fill="#ecebfd"></path><rect fill="#e1966d" height="59.994" rx="4" width="119.989" x="4" y="55.453"></rect><path d="m50.629 12.755-25.607 8.919a3.583 3.583 0 0 0 2.357 6.767l25.607-8.92a3.582 3.582 0 1 0 -2.357-6.766z" fill="#ecebfd"></path><g fill="#d1d1fd"><path d="m74.837 88.922 3.695 3.694 3.697-3.694v-48.145h-7.392z"></path><path d="m36.692 25.197 6.817 19.57-3.03 30.523 3.352 4.01 4.01-3.352 3.171-32.111-7.339-21.071z"></path></g><g fill="#d78a61"><path d="m57.821 80.278c-4.931 0-8.928 2-8.928 4.464 0 2.466 4 4.465 8.928 4.465 4.932 0 8.929-2 8.928-4.465s-3.997-4.464-8.928-4.464z"></path><ellipse cx="16.443" cy="103.894" rx="6.23" ry="3.991"></ellipse></g></g><path d="m8 117.45h56.71a2 2 0 0 0 0-4h-56.71a2 2 0 0 1 -2-2v-18.393c1.979.035 3.857.12 5.6.257.053 0 .106.006.158.006a2 2 0 0 0 .154-3.994c-1.847-.144-3.831-.233-5.916-.269v-6.886a88.378 88.378 0 0 1 19.173 2.966 2 2 0 1 0 1.084-3.85 92.592 92.592 0 0 0 -20.253-3.12v-5.345c6.6-.745 20.588-3.709 23.277-15.372h10.964l-1.751 17.643a2 2 0 0 0 .455 1.479l3.35 4.01a2 2 0 0 0 2.817.253l4.01-3.35a2 2 0 0 0 .708-1.339l1.846-18.7h21.161v11.572c-6.437-2.988-14.332-2.906-14.719-2.908a2 2 0 0 0 .031 4h.029c.081 0 9.014-.078 14.659 3.44v15.372a2 2 0 0 0 .586 1.414l3.695 3.694a2 2 0 0 0 2.828 0l3.7-3.694a2 2 0 0 0 .586-1.415v-31.471h12.258c5 6.785 17.02 9.06 25.5 8.987v17.063c-15.315.453-24.395 6.035-33.168 11.453-8.585 5.3-16.693 10.311-30.466 10.311a54.012 54.012 0 0 1 -15.856-1.93 2 2 0 1 0 -1.166 3.826 57.774 57.774 0 0 0 17.023 2.1c14.909 0 23.886-5.545 32.568-10.907s16.9-10.419 31.066-10.859v4.981c-13.091.49-24.155 5.742-27.284 13.124a9.586 9.586 0 0 0 -.02 7.852h-6.777a2 2 0 0 0 0 4h32.08a6.006 6.006 0 0 0 6-6v-52a6.007 6.007 0 0 0 -6-6h-35.761v-10.671h7.861a5.585 5.585 0 0 0 0-11.17h-.75a2 2 0 0 0 0 4h.75a1.585 1.585 0 0 1 0 3.17h-27.11a1.585 1.585 0 1 1 0-3.17h17.25a2 2 0 0 0 0-4h-17.25a5.585 5.585 0 1 0 0 11.17h7.857v10.67h-20.766l.929-9.414a2 2 0 0 0 -.1-.854l-1.8-5.161a2 2 0 0 0 -3.778 1.317l1.656 4.744-.925 9.368h-3.395l.842-8.483a2.009 2.009 0 0 0 -.1-.856l-6.163-17.682 3.2-1.115 1.875 5.386a2 2 0 1 0 3.777-1.314l-1.874-5.386 7.429-2.588a5.583 5.583 0 0 0 -3.673-10.544l-25.607 8.917a5.583 5.583 0 0 0 3.673 10.545l7.422-2.585 6.017 17.266-.838 8.439h-32.638a6.007 6.007 0 0 0 -6 6v52a6.006 6.006 0 0 0 6 6zm111.99-4h-20.619a5.782 5.782 0 0 1 -.982-6.291c2.149-5.072 10.87-10.192 23.6-10.685v14.976a2 2 0 0 1 -1.999 2zm2-54v2.987c-6.473.059-14.68-1.322-19.8-4.987h17.8a2 2 0 0 1 2 2zm-41.761 28.643-1.7 1.695-1.695-1.694v-30.644h3.392zm-3.392-45.313h3.392v10.67h-3.392zm-50.114-16.227a1.588 1.588 0 0 1 -2.017-.974 1.567 1.567 0 0 1 .976-2.016l25.606-8.919a1.582 1.582 0 1 1 1.039 2.989zm20.934 30.9-1.727 17.486-1.847 1.543-1.529-1.83 1.707-17.2zm-39.657-.003h17.137c-2.566 8.175-12.895 10.623-19.137 11.35v-9.35a2 2 0 0 1 2-2zm65.83 60a2 2 0 0 1 0-4h4.97a2 2 0 0 1 0 4zm-43.852-19.2a40.69 40.69 0 0 0 -9.578-3.635 2 2 0 1 1 .932-3.89 44.44 44.44 0 0 1 10.468 3.965 2 2 0 0 1 -1.824 3.559zm66.793-21.488a2 2 0 0 1 1.752-2.22l13.394-1.572a2 2 0 1 1 .467 3.972l-13.394 1.573a2.087 2.087 0 0 1 -.236.013 2 2 0 0 1 -1.983-1.766zm-28.021 7.98c0-3.684-4.7-6.463-10.929-6.463s-10.928 2.78-10.928 6.464 4.7 6.465 10.929 6.465c4.698-.001 10.928-1.921 10.928-6.466zm-17.857 0c0-.715 2.427-2.464 6.928-2.464s6.929 1.749 6.929 2.464c0 .246-.4.813-1.509 1.367a12.622 12.622 0 0 1 -5.42 1.1c-4.501-.002-6.928-1.751-6.928-2.467zm-42.68 19.158c0 3.359 3.615 5.99 8.23 5.99s8.23-2.631 8.23-5.99-3.615-6-8.23-6-8.23 2.635-8.23 6zm12.46 0c0 .792-1.687 1.99-4.23 1.99s-4.23-1.2-4.23-1.99 1.687-1.992 4.23-1.992 4.23 1.192 4.23 1.992zm98.846 2.57a2 2 0 0 1 -2 2h-7.044a2 2 0 0 1 0-4h7.044a2 2 0 0 1 2 1.995zm-76.267-15.781c14.621 7.549 24.977 3.015 25.412 2.819a2 2 0 0 1 1.676 3.632 26.567 26.567 0 0 1 -10.483 1.885 40 40 0 0 1 -18.441-4.781 2 2 0 0 1 1.836-3.555z" fill="#352d29"></path></g></svg>