<!-- icon666.com - MILLIONS vector ICONS FREE --><svg version="1.1" id="Capa_1" xmlns="http://www.w3.org/2000/svg" xmlns:xlink="http://www.w3.org/1999/xlink" x="0px" y="0px" viewBox="0 0 368 368" style="enable-background:new 0 0 368 368;" xml:space="preserve"><g><g><g><path d="M360,352h-8V120c0-4.416-3.576-8-8-8h-64c-4.424,0-8,3.584-8,8v232h-32V152c0-4.416-3.576-8-8-8h-64 c-4.424,0-8,3.584-8,8v200h-32V184c0-4.416-3.576-8-8-8H56c-4.424,0-8,3.584-8,8v168H16V8c0-4.416-3.576-8-8-8S0,3.584,0,8v352 c0,4.416,3.576,8,8,8h48h64h48h64h48h64h16c4.424,0,8-3.584,8-8C368,355.584,364.424,352,360,352z M112,352H64V192h48V352z M224,352h-48V160h48V352z M336,352h-48V128h48V352z"></path><path d="M56,112c2.048,0,4.096-0.784,5.656-2.344L144,27.312V88c0,4.416,3.576,8,8,8s8-3.584,8-8V8 c0-1.04-0.208-2.08-0.616-3.056c-0.808-1.96-2.368-3.52-4.328-4.328C154.08,0.216,153.04,0,152,0H72c-4.424,0-8,3.584-8,8 s3.576,8,8,8h60.688L50.344,98.344c-3.128,3.128-3.128,8.184,0,11.312C51.904,111.216,53.952,112,56,112z"></path></g></g></g></svg>